<svg width="369" height="356" viewBox="0 0 369 356" fill="none" xmlns="http://www.w3.org/2000/svg">
<path d="M333.532 241.245C316.061 284.549 282.631 316.712 242.708 333.646L251.512 354.359C296.73 335.117 334.636 298.678 354.405 249.613L333.532 241.245ZM270.867 216.007L249.994 207.593C241.811 227.852 226.145 242.911 207.496 250.849L216.298 271.559C240.242 261.314 260.337 241.98 270.867 216.007Z" fill="#284576"/>
<path d="M20.7111 244.18L0 252.984C19.2423 298.202 55.6814 336.108 104.7 355.877L113.114 335.005C69.8561 317.487 37.6917 284.056 20.7111 244.18ZM312.613 232.835C297.487 270.377 268.487 298.264 233.86 312.984L242.662 333.695C282.585 316.714 316.014 284.551 333.486 241.295L312.613 232.835ZM103.556 208.921L82.8443 217.722C93.0431 241.713 112.38 261.809 138.4 272.29L146.813 251.418C126.553 243.234 111.494 227.57 103.556 208.921ZM229.075 199.134C223.236 213.632 212.047 224.416 198.645 230.093L207.448 250.804C226.097 242.866 241.763 227.807 249.947 207.548L229.075 199.134Z" fill="#E84158"/>
<path d="M41.4231 235.33L20.7112 244.134C37.6927 284.057 69.8567 317.485 113.161 334.956L121.573 314.083C84.0306 298.958 56.1441 269.959 41.4231 235.33ZM124.316 200.116L103.604 208.92C111.542 227.617 126.601 243.234 146.861 251.418L155.274 230.546C140.729 224.66 129.992 213.472 124.316 200.116Z" fill="#893035"/>
<path d="M62.1323 226.526C49.6735 197.239 48.3659 163.192 61.1938 131.411L40.3213 122.997C55.4468 85.4543 84.4472 57.5679 119.075 42.8474L110.27 22.1337C70.3478 39.1151 36.9184 71.2789 19.4474 114.583C1.9766 157.888 3.77608 204.258 20.7567 244.133L41.4688 235.329C56.1891 269.911 84.0761 298.911 121.619 314.083L130.033 293.21C98.2044 280.383 74.5924 255.812 62.1323 226.526ZM145.025 191.312C141.609 183.252 141.239 173.894 144.779 165.158L123.907 156.744C129.746 142.246 140.936 131.461 154.337 125.785L145.533 105.074C126.884 113.011 111.219 128.071 103.034 148.33C94.8506 168.589 95.7131 190.316 103.65 208.966L124.361 200.162C130.038 213.516 140.822 224.707 155.321 230.593L163.734 209.718C154.949 206.131 148.441 199.371 145.025 191.312Z" fill="#BCD02C"/>
<path d="M119.028 42.8937C84.4473 57.6133 55.4473 85.5005 40.2744 123.044L61.1469 131.458C73.9749 99.6763 98.4983 76.0643 127.785 63.6051L119.028 42.8937ZM154.289 125.74C140.935 131.415 129.698 142.201 123.859 156.699L144.732 165.11C148.273 156.373 155.034 149.866 163.094 146.45L154.289 125.74Z" fill="#4E6935"/>
<path d="M222.947 62.6664L214.534 83.5389C240.554 94.0214 259.891 114.163 270.089 138.107L290.8 129.304C278.34 100.017 254.73 75.4938 222.947 62.6664ZM189.247 146.205L180.834 167.077C183.809 168.272 186.042 170.603 187.196 173.321L207.908 164.516C204.493 156.505 197.983 149.745 189.247 146.205Z" fill="#7E3F54"/>
<path d="M352.934 102.894C333.691 57.6758 297.253 19.8169 248.234 0L239.82 20.8725C283.124 38.3434 315.288 71.772 332.222 111.695C349.203 151.618 350.955 197.988 333.531 241.246L354.404 249.659C374.174 200.641 372.176 148.111 352.934 102.894ZM270.089 138.107C259.891 114.116 240.554 94.02 214.534 83.5389L206.12 104.411C226.38 112.595 241.439 128.214 249.377 146.911C257.314 165.561 258.13 187.288 249.993 207.547L270.865 215.958C260.383 241.978 240.289 261.315 216.297 271.513L225.101 292.225C254.387 279.765 278.958 256.153 291.739 224.372C304.566 192.591 303.259 158.543 290.799 129.258L270.089 138.107ZM187.196 173.369C188.352 176.133 188.476 179.331 187.28 182.306C186.085 185.281 183.754 187.513 181.036 188.668L189.839 209.379C197.899 205.963 204.66 199.455 208.2 190.719C211.741 181.983 211.371 172.624 207.955 164.564L187.196 173.369Z" fill="#42B2E3"/>
<path d="M231.362 41.7441C193.819 26.6186 153.61 28.1729 119.028 42.8464L127.832 63.5574C98.5455 76.0161 73.9746 99.6282 61.1941 131.409L82.0666 139.821C92.5482 113.801 112.645 94.4666 136.636 84.2679C160.627 74.0691 188.468 73.0076 214.487 83.4892L222.901 62.6167C254.682 75.4446 278.294 99.9695 290.754 129.302L311.465 120.498C296.791 85.9166 268.905 56.917 231.362 41.7441ZM197.662 125.33C183.164 119.492 167.644 120.061 154.243 125.739L163.047 146.449C154.987 149.865 148.226 156.371 144.685 165.108L165.558 173.523C166.754 170.547 169.085 168.315 171.802 167.161C174.567 166.005 177.766 165.881 180.741 167.077L189.153 146.204C197.89 149.745 204.399 156.505 207.815 164.565L228.526 155.761C222.944 142.358 212.159 131.17 197.662 125.33Z" fill="#FECC00"/>
</svg>
