<svg width="83" height="66" viewBox="0 0 83 66" fill="none" xmlns="http://www.w3.org/2000/svg">
<path d="M37.576 61.8186C37.5629 62.3084 37.6524 62.7957 37.8394 63.2519C38.0263 63.7081 38.3069 64.1239 38.6645 64.4748C39.0221 64.8256 39.4496 65.1045 39.9217 65.2949C40.3938 65.4853 40.901 65.5833 41.4133 65.5833C41.9257 65.5833 42.4329 65.4853 42.905 65.2949C43.3771 65.1045 43.8045 64.8256 44.1621 64.4748C44.5198 64.1239 44.8003 63.7081 44.9873 63.2519C45.1742 62.7957 45.2638 62.3084 45.2507 61.8186C45.2544 61.7642 45.2544 61.7096 45.2507 61.6552H37.576V61.8186Z" fill="url(#paint0_linear_112_1073)"/>
<path d="M23.9876 42.8684C23.96 42.4865 23.9449 42.0973 23.9449 41.7033C23.9398 38.402 24.964 35.1742 26.8867 32.4324C28.9523 33.706 31.2471 34.6021 33.6545 35.0751C33.2599 37.3011 33.1075 39.5602 33.1998 41.8162C33.2149 42.1645 33.2275 42.5105 33.2501 42.8588H36.0763C36.0562 42.4841 36.0336 42.1021 36.021 41.7201C35.9338 39.6441 36.0744 37.5651 36.4406 35.5171C37.7808 35.6627 39.1288 35.7333 40.4776 35.7285C40.7992 35.7285 41.1183 35.7285 41.4398 35.7285C43.2747 35.6927 45.1054 35.5474 46.9214 35.2937C47.3239 37.4153 47.4797 39.5729 47.3862 41.7273C47.3711 42.1093 47.356 42.4913 47.3284 42.866H50.1546C50.1772 42.5177 50.1973 42.1717 50.2048 41.8234C50.308 39.4633 50.1395 37.0996 49.7024 34.7748C51.8876 34.3004 53.9758 33.4838 55.8824 32.3579C57.8356 35.1155 58.8779 38.3703 58.8744 41.7009C58.8744 42.0949 58.8593 42.4841 58.8317 42.866H61.6654C61.6855 42.4769 61.7006 42.0949 61.7006 41.7009C61.7305 39.135 61.2278 36.5889 60.2217 34.2101C59.2155 31.8313 57.7259 29.6669 55.8391 27.8424C53.9523 26.0179 51.7058 24.5694 49.2296 23.5808C46.7534 22.5922 44.0967 22.0832 41.4134 22.0832C38.7301 22.0832 36.0735 22.5922 33.5973 23.5808C31.1211 24.5694 28.8746 26.0179 26.9877 27.8424C25.1009 29.6669 23.6114 31.8313 22.6052 34.2101C21.5991 36.5889 21.0964 39.135 21.1263 41.7009C21.1263 42.0949 21.1388 42.4769 21.1614 42.866L23.9876 42.8684ZM54.1038 30.2414C52.5308 31.1256 50.8253 31.7738 49.0467 32.1633C48.333 29.7986 47.2215 27.5607 45.7558 25.5375C48.9462 26.3221 51.84 27.9527 54.1038 30.2414ZM41.7061 25.0114C43.8094 27.2029 45.365 29.8225 46.2557 32.6727C44.6383 32.8858 43.0093 33.0085 41.377 33.0402C39.9463 33.0757 38.5148 33.0227 37.0912 32.8817C37.9721 29.9521 39.5518 27.258 41.7061 25.0114ZM37.7745 25.3669C36.189 27.519 35.0059 29.9177 34.2776 32.4564C32.2835 32.0651 30.377 31.3414 28.6452 30.3183C31.0867 27.8133 34.2733 26.085 37.7745 25.3669Z" fill="url(#paint1_linear_112_1073)"/>
<path d="M22.8521 49.3717C24.259 52.413 26.4598 55.0574 29.2432 57.0511C32.0265 59.0448 35.2991 60.3208 38.7467 60.7567H39.8721C35.6391 54.8324 30.3032 49.3165 22.8521 49.3717Z" fill="url(#paint2_linear_112_1073)"/>
<path d="M43.4141 60.7447H44.2054C47.6083 60.2905 50.8348 59.0172 53.5824 57.0444C56.33 55.0715 58.5087 52.4637 59.9141 49.4654C52.6062 50.2438 47.4712 55.3369 43.4141 60.7447Z" fill="url(#paint3_linear_112_1073)"/>
<path d="M36.0283 42.7628C36.4428 49.2492 38.3295 54.4 41.6481 58.0709C44.9592 54.3904 46.8533 49.2492 47.2653 42.7628H36.0283Z" fill="url(#paint4_linear_112_1073)"/>
<path d="M34.6036 50.9309C33.8161 48.2674 33.3459 45.5273 33.2018 42.7628H21.1685C21.2566 44.1004 21.4898 45.4256 21.8643 46.7171C21.9221 46.7171 21.9874 46.7171 22.0502 46.7171C26.4717 46.4697 30.6947 47.9015 34.6036 50.9309Z" fill="url(#paint5_linear_112_1073)"/>
<path d="M60.7532 46.6955H60.9667C61.3358 45.4104 61.5672 44.0927 61.6576 42.7628H50.1015C49.9508 45.6823 49.4338 48.5739 48.5615 51.3754C52.3223 48.4853 56.4247 46.9189 60.7532 46.6955Z" fill="url(#paint6_linear_112_1073)"/>
<path d="M82.0892 61.2468C79.8031 57.8835 77.2306 54.3832 73.8994 51.5651C69.8799 48.1513 65.5238 46.5201 60.9667 46.6883C60.6941 47.6388 60.3439 48.5674 59.9191 49.4654C60.2482 49.4318 60.5748 49.4126 60.9089 49.391C61.1601 49.379 61.4114 49.3718 61.6626 49.3718C68.7495 49.3718 73.8743 54.5393 78.2757 60.6414L4.85948 60.8672C9.3161 54.9141 14.5992 49.7802 22.2061 49.391C22.4272 49.379 22.6458 49.379 22.8593 49.3718C22.4637 48.5072 22.133 47.6169 21.8695 46.7075C17.2772 46.9886 12.9412 48.8408 8.9669 52.233C5.72116 54.9886 3.20897 58.3063 0.980657 61.4727C0.958047 61.5063 0.930413 61.5471 0.907804 61.588C0.888662 61.6251 0.872699 61.6637 0.860072 61.7033L0.829926 61.7417C0.829926 61.7681 0.809828 61.797 0.802292 61.8234C0.794755 61.8498 0.787219 61.8714 0.779682 61.8907C0.777938 61.9119 0.773725 61.9328 0.767121 61.9531C0.767121 61.9868 0.767121 62.0276 0.752048 62.0612V62.0829C0.745433 62.129 0.742912 62.1756 0.744511 62.2222C0.740762 62.263 0.740762 62.304 0.744511 62.3447C0.744511 62.3736 0.744511 62.3928 0.744511 62.4144C0.748174 62.4343 0.748174 62.4546 0.744511 62.4745L0.764609 62.5561C0.764609 62.5706 0.764609 62.5898 0.779682 62.6042C0.794755 62.6186 0.79978 62.6522 0.807316 62.6787L0.829926 62.7267C0.829926 62.7483 0.850023 62.7675 0.85756 62.794C0.867744 62.8119 0.876967 62.8304 0.885194 62.8492C0.895194 62.8663 0.906977 62.8824 0.920365 62.8973C0.930083 62.9188 0.942756 62.939 0.958047 62.9573C0.958047 62.9718 0.978145 62.9862 0.985682 63.0054C1.00399 63.025 1.02078 63.0459 1.03593 63.0678L1.0711 63.1015C1.09175 63.1211 1.11105 63.142 1.12888 63.1639C1.14897 63.1639 1.16405 63.1976 1.18414 63.2096L1.22685 63.2504C1.26838 63.2849 1.31389 63.3147 1.36251 63.3393C1.39014 63.3609 1.42029 63.373 1.44792 63.3946L1.49817 63.4234C1.52831 63.4234 1.54841 63.445 1.57605 63.4522L1.61373 63.4715L1.70668 63.5051C1.71574 63.5028 1.72525 63.5028 1.73431 63.5051C1.77328 63.5189 1.81372 63.5286 1.8549 63.5339H1.87751C1.91205 63.5423 1.94741 63.5471 1.98302 63.5483C1.99809 63.5483 2.00563 63.5483 2.01065 63.5483C2.01568 63.5483 2.09607 63.5483 2.14631 63.5483L80.9059 63.3081C81.1586 63.3059 81.4061 63.239 81.6225 63.1143C81.839 62.9897 82.0166 62.8119 82.1369 62.5994C82.2556 62.3903 82.3138 62.1547 82.3054 61.9169C82.297 61.6791 82.2224 61.4478 82.0892 61.2468Z" fill="url(#paint7_linear_112_1073)"/>
<path d="M53.7969 21.4775C53.4726 21.4797 53.1575 21.3744 52.9051 21.1796C50.1417 19.0342 46.0845 17.8162 41.8037 17.8162C37.523 17.8162 33.4859 19.0439 30.7024 21.1796C30.4115 21.4045 30.0392 21.5097 29.6672 21.4721C29.2953 21.4345 28.9542 21.2571 28.719 20.979C28.4838 20.7009 28.3738 20.3448 28.4131 19.9891C28.4524 19.6334 28.6379 19.3072 28.9288 19.0823C32.1946 16.555 36.8974 15.1039 41.8037 15.1039C46.71 15.1039 51.4103 16.5454 54.6787 19.0823C54.9093 19.2559 55.0773 19.4941 55.1593 19.7635C55.2413 20.033 55.2331 20.3202 55.1359 20.585C55.0387 20.8497 54.8574 21.0788 54.6173 21.2402C54.3772 21.4015 54.0903 21.487 53.7969 21.4847V21.4775Z" fill="url(#paint8_linear_112_1073)"/>
<path d="M48.5489 11.6997C48.3037 11.7005 48.0628 11.6391 47.8505 11.5219C46.3557 10.6979 44.1551 10.2222 41.8036 10.2222C39.4522 10.2222 37.2616 10.7027 35.7744 11.5219C35.6133 11.6177 35.4337 11.6815 35.2463 11.7095C35.0588 11.7376 34.8674 11.7293 34.6834 11.6851C34.4994 11.641 34.3266 11.5619 34.1752 11.4525C34.0238 11.3432 33.897 11.2058 33.8023 11.0487C33.7075 10.8915 33.6468 10.7177 33.6238 10.5376C33.6007 10.3576 33.6158 10.1749 33.668 10.0005C33.7203 9.82613 33.8087 9.66358 33.928 9.52254C34.0474 9.3815 34.1951 9.26486 34.3625 9.17955C36.2994 8.11048 38.9498 7.52429 41.8112 7.52429C44.6726 7.52429 47.3229 8.11048 49.2674 9.17955C49.5889 9.36132 49.8222 9.65735 49.9163 10.003C50.0105 10.3487 49.9578 10.7159 49.7698 11.0246C49.6476 11.2309 49.47 11.4023 49.2554 11.521C49.0407 11.6397 48.7968 11.7013 48.5489 11.6997Z" fill="url(#paint9_linear_112_1073)"/>
<path d="M44.7455 3.19278C44.5489 3.19462 44.3543 3.15526 44.1753 3.07746C42.6375 2.57773 40.9701 2.57773 39.4323 3.07746C39.0926 3.21008 38.7122 3.21079 38.372 3.07944C38.0318 2.94809 37.7585 2.69503 37.6103 2.37406C37.4621 2.05308 37.4507 1.68949 37.5784 1.36056C37.7061 1.03163 37.9629 0.763303 38.2942 0.6126C40.5568 -0.2042 43.0532 -0.2042 45.3158 0.6126C45.6138 0.7358 45.8581 0.95377 46.0072 1.22955C46.1563 1.50532 46.2011 1.82193 46.134 2.12569C46.0668 2.42944 45.8919 2.70164 45.6388 2.89613C45.3858 3.09062 45.0702 3.19543 44.7455 3.19278Z" fill="url(#paint10_linear_112_1073)"/>
<defs>
<linearGradient id="paint0_linear_112_1073" x1="59.2631" y1="138.327" x2="22.3504" y2="-8.89123" gradientUnits="userSpaceOnUse">
<stop stop-color="#F7A707"/>
<stop offset="0.32" stop-color="#E84D22"/>
<stop offset="0.59" stop-color="#DA1F53"/>
<stop offset="0.67" stop-color="#DA1F53"/>
<stop offset="1" stop-color="#732F80"/>
</linearGradient>
<linearGradient id="paint1_linear_112_1073" x1="65.5328" y1="138.942" x2="28.6676" y2="-8.08501" gradientUnits="userSpaceOnUse">
<stop stop-color="#F7A707"/>
<stop offset="0.32" stop-color="#E84D22"/>
<stop offset="0.59" stop-color="#DA1F53"/>
<stop offset="0.67" stop-color="#DA1F53"/>
<stop offset="1" stop-color="#732F80"/>
</linearGradient>
<linearGradient id="paint2_linear_112_1073" x1="48.2804" y1="129.726" x2="16.7315" y2="3.89957" gradientUnits="userSpaceOnUse">
<stop stop-color="#F7A707"/>
<stop offset="0.32" stop-color="#E84D22"/>
<stop offset="0.59" stop-color="#DA1F53"/>
<stop offset="0.67" stop-color="#DA1F53"/>
<stop offset="1" stop-color="#732F80"/>
</linearGradient>
<linearGradient id="paint3_linear_112_1073" x1="86.5258" y1="190.893" x2="23.0126" y2="-62.4135" gradientUnits="userSpaceOnUse">
<stop stop-color="#F7A707"/>
<stop offset="0.32" stop-color="#E84D22"/>
<stop offset="0.59" stop-color="#DA1F53"/>
<stop offset="0.67" stop-color="#DA1F53"/>
<stop offset="1" stop-color="#732F80"/>
</linearGradient>
<linearGradient id="paint4_linear_112_1073" x1="63.3111" y1="133.292" x2="29.1094" y2="-3.11212" gradientUnits="userSpaceOnUse">
<stop stop-color="#F7A707"/>
<stop offset="0.32" stop-color="#E84D22"/>
<stop offset="0.59" stop-color="#DA1F53"/>
<stop offset="0.67" stop-color="#DA1F53"/>
<stop offset="1" stop-color="#732F80"/>
</linearGradient>
<linearGradient id="paint5_linear_112_1073" x1="47.2858" y1="129.956" x2="15.7442" y2="4.15891" gradientUnits="userSpaceOnUse">
<stop stop-color="#F7A707"/>
<stop offset="0.32" stop-color="#E84D22"/>
<stop offset="0.59" stop-color="#DA1F53"/>
<stop offset="0.67" stop-color="#DA1F53"/>
<stop offset="1" stop-color="#732F80"/>
</linearGradient>
<linearGradient id="paint6_linear_112_1073" x1="83.4176" y1="157.764" x2="37.7917" y2="-24.2031" gradientUnits="userSpaceOnUse">
<stop stop-color="#F7A707"/>
<stop offset="0.32" stop-color="#E84D22"/>
<stop offset="0.59" stop-color="#DA1F53"/>
<stop offset="0.67" stop-color="#DA1F53"/>
<stop offset="1" stop-color="#732F80"/>
</linearGradient>
<linearGradient id="paint7_linear_112_1073" x1="58.9648" y1="136.909" x2="21.9404" y2="-10.755" gradientUnits="userSpaceOnUse">
<stop stop-color="#F7A707"/>
<stop offset="0.32" stop-color="#E84D22"/>
<stop offset="0.59" stop-color="#DA1F53"/>
<stop offset="0.67" stop-color="#DA1F53"/>
<stop offset="1" stop-color="#732F80"/>
</linearGradient>
<linearGradient id="paint8_linear_112_1073" x1="75.8676" y1="153.067" x2="35.3257" y2="-8.62401" gradientUnits="userSpaceOnUse">
<stop stop-color="#F7A707"/>
<stop offset="0.32" stop-color="#E84D22"/>
<stop offset="0.59" stop-color="#DA1F53"/>
<stop offset="0.67" stop-color="#DA1F53"/>
<stop offset="1" stop-color="#732F80"/>
</linearGradient>
<linearGradient id="paint9_linear_112_1073" x1="78.9048" y1="153.796" x2="38.8653" y2="-5.89051" gradientUnits="userSpaceOnUse">
<stop stop-color="#F7A707"/>
<stop offset="0.32" stop-color="#E84D22"/>
<stop offset="0.59" stop-color="#DA1F53"/>
<stop offset="0.67" stop-color="#DA1F53"/>
<stop offset="1" stop-color="#732F80"/>
</linearGradient>
<linearGradient id="paint10_linear_112_1073" x1="81.0687" y1="152.685" x2="41.8427" y2="-3.75905" gradientUnits="userSpaceOnUse">
<stop stop-color="#F7A707"/>
<stop offset="0.32" stop-color="#E84D22"/>
<stop offset="0.59" stop-color="#DA1F53"/>
<stop offset="0.67" stop-color="#DA1F53"/>
<stop offset="1" stop-color="#732F80"/>
</linearGradient>
</defs>
</svg>
