<svg width="38" height="25" viewBox="0 0 38 25" fill="none" xmlns="http://www.w3.org/2000/svg">
<path d="M19.0003 19.6182C21.0837 19.6182 22.8545 18.9367 24.3128 17.5736C25.7712 16.2105 26.5003 14.5554 26.5003 12.6081C26.5003 10.6609 25.7712 9.00574 24.3128 7.64267C22.8545 6.2796 21.0837 5.59807 19.0003 5.59807C16.917 5.59807 15.1462 6.2796 13.6878 7.64267C12.2295 9.00574 11.5003 10.6609 11.5003 12.6081C11.5003 14.5554 12.2295 16.2105 13.6878 17.5736C15.1462 18.9367 16.917 19.6182 19.0003 19.6182ZM19.0003 16.8142C17.7503 16.8142 16.6878 16.4053 15.8128 15.5874C14.9378 14.7696 14.5003 13.7765 14.5003 12.6081C14.5003 11.4398 14.9378 10.4467 15.8128 9.62886C16.6878 8.81102 17.7503 8.4021 19.0003 8.4021C20.2503 8.4021 21.3128 8.81102 22.1878 9.62886C23.0628 10.4467 23.5003 11.4398 23.5003 12.6081C23.5003 13.7765 23.0628 14.7696 22.1878 15.5874C21.3128 16.4053 20.2503 16.8142 19.0003 16.8142ZM19.0003 24.2916C14.9448 24.2916 11.2503 23.2336 7.91699 21.1176C4.58366 19.0016 2.16699 16.1651 0.666992 12.6081C2.16699 9.05118 4.58366 6.21469 7.91699 4.09869C11.2503 1.98268 14.9448 0.924683 19.0003 0.924683C23.0559 0.924683 26.7503 1.98268 30.0837 4.09869C33.417 6.21469 35.8337 9.05118 37.3337 12.6081C35.8337 16.1651 33.417 19.0016 30.0837 21.1176C26.7503 23.2336 23.0559 24.2916 19.0003 24.2916ZM19.0003 21.176C22.1392 21.176 25.0212 20.4036 27.6462 18.8588C30.2712 17.314 32.2781 15.2304 33.667 12.6081C32.2781 9.98585 30.2712 7.9023 27.6462 6.35749C25.0212 4.81268 22.1392 4.04027 19.0003 4.04027C15.8614 4.04027 12.9795 4.81268 10.3545 6.35749C7.72949 7.9023 5.72255 9.98585 4.33366 12.6081C5.72255 15.2304 7.72949 17.314 10.3545 18.8588C12.9795 20.4036 15.8614 21.176 19.0003 21.176Z" fill="white"/>
</svg>
