<svg width="443" height="373" viewBox="0 0 443 373" fill="none" xmlns="http://www.w3.org/2000/svg">
<path d="M200.056 351.098C199.985 353.88 200.471 356.648 201.487 359.239C202.502 361.829 204.026 364.191 205.968 366.184C207.911 368.176 210.232 369.76 212.797 370.841C215.361 371.923 218.115 372.48 220.898 372.48C223.681 372.48 226.435 371.923 228.999 370.841C231.564 369.76 233.885 368.176 235.828 366.184C237.77 364.191 239.294 361.829 240.309 359.239C241.325 356.648 241.811 353.88 241.74 351.098C241.76 350.789 241.76 350.479 241.74 350.17H200.056V351.098Z" fill="#3E2235"/>
<path d="M126.253 243.471C126.103 241.301 126.021 239.091 126.021 236.853C125.993 218.104 131.556 199.772 141.999 184.199C153.218 191.433 165.681 196.522 178.757 199.208C176.614 211.851 175.786 224.681 176.287 237.495C176.369 239.473 176.438 241.438 176.56 243.416H191.91C191.801 241.288 191.678 239.118 191.61 236.949C191.136 225.158 191.9 213.35 193.889 201.719C201.168 202.546 208.489 202.947 215.815 202.92C217.562 202.92 219.295 202.92 221.041 202.92C231.007 202.716 240.95 201.891 250.813 200.45C252.999 212.5 253.846 224.754 253.337 236.99C253.256 239.159 253.174 241.329 253.024 243.457H268.374C268.496 241.479 268.605 239.514 268.646 237.535C269.207 224.132 268.292 210.707 265.918 197.503C277.786 194.809 289.127 190.171 299.483 183.776C310.091 199.438 315.752 217.924 315.733 236.84C315.733 239.077 315.651 241.288 315.501 243.457H330.892C331.001 241.247 331.083 239.077 331.083 236.84C331.245 222.267 328.515 207.806 323.051 194.296C317.586 180.785 309.496 168.493 299.248 158.13C289 147.768 276.799 139.541 263.35 133.927C249.901 128.312 235.472 125.421 220.898 125.421C206.324 125.421 191.895 128.312 178.446 133.927C164.997 139.541 152.796 147.768 142.548 158.13C132.3 168.493 124.21 180.785 118.745 194.296C113.28 207.806 110.55 222.267 110.712 236.84C110.712 239.077 110.781 241.247 110.903 243.457L126.253 243.471ZM289.823 171.756C281.279 176.778 272.016 180.459 262.356 182.671C258.48 169.241 252.443 156.531 244.482 145.04C261.811 149.496 277.528 158.757 289.823 171.756ZM222.487 142.052C233.911 154.499 242.36 169.377 247.197 185.564C238.413 186.774 229.566 187.471 220.7 187.651C212.93 187.853 205.154 187.552 197.423 186.751C202.207 170.113 210.787 154.812 222.487 142.052ZM201.134 144.071C192.523 156.294 186.096 169.917 182.141 184.336C171.311 182.113 160.956 178.003 151.55 172.192C164.811 157.965 182.118 148.15 201.134 144.071Z" fill="#3E2235"/>
<path d="M120.086 280.406C127.727 297.679 139.68 312.698 154.798 324.021C169.915 335.344 187.689 342.591 206.414 345.067H212.527C189.536 311.42 160.555 280.092 120.086 280.406Z" fill="#3E2235"/>
<path d="M231.766 344.999H236.064C254.546 342.419 272.07 335.188 286.993 323.983C301.916 312.778 313.749 297.967 321.382 280.938C281.691 285.359 253.801 314.285 231.766 344.999Z" fill="#3E2235"/>
<path d="M191.651 242.87C193.903 279.71 204.15 308.964 222.174 329.813C240.157 308.909 250.445 279.71 252.683 242.87H191.651Z" fill="#3E2235"/>
<path d="M183.915 289.261C179.637 274.134 177.083 258.572 176.301 242.87H110.944C111.423 250.467 112.69 257.994 114.724 265.329C115.038 265.329 115.392 265.329 115.734 265.329C139.748 263.924 162.684 272.056 183.915 289.261Z" fill="#3E2235"/>
<path d="M325.939 265.206H327.099C329.103 257.907 330.36 250.424 330.851 242.87H268.087C267.268 259.452 264.46 275.875 259.723 291.786C280.148 275.371 302.43 266.475 325.939 265.206Z" fill="#3E2235"/>
<path d="M441.821 347.851C429.405 328.748 415.433 308.868 397.34 292.864C375.509 273.475 351.85 264.21 327.099 265.165C325.619 270.564 323.716 275.838 321.409 280.938C323.197 280.747 324.971 280.638 326.785 280.515C328.15 280.447 329.514 280.406 330.879 280.406C369.369 280.406 397.204 309.755 421.109 344.412L22.3648 345.695C46.57 311.884 75.2642 282.726 116.579 280.515C117.78 280.447 118.967 280.447 120.127 280.406C117.978 275.496 116.182 270.44 114.751 265.275C89.8091 266.871 66.2589 277.391 44.6734 296.657C27.0448 312.307 13.4004 331.15 1.29785 349.133C1.17505 349.324 1.02496 349.556 0.90216 349.788C0.798194 349.999 0.711496 350.218 0.642917 350.443L0.479184 350.661C0.479184 350.811 0.370028 350.975 0.329095 351.125C0.288162 351.275 0.247229 351.398 0.206296 351.507C0.196822 351.628 0.173939 351.747 0.138074 351.862C0.138074 352.053 0.138074 352.285 0.0562071 352.476V352.599C0.0202792 352.861 0.00658604 353.126 0.0152738 353.39C-0.00509128 353.622 -0.00509128 353.854 0.0152738 354.086C0.0152738 354.25 0.0152738 354.359 0.0152738 354.482C0.035165 354.594 0.035165 354.71 0.0152738 354.823L0.124429 355.287C0.124429 355.369 0.124429 355.478 0.206296 355.56C0.288162 355.641 0.315451 355.832 0.356384 355.983L0.479184 356.255C0.479184 356.378 0.588339 356.487 0.629272 356.638C0.684586 356.74 0.73468 356.844 0.779361 356.951C0.833672 357.048 0.897672 357.14 0.970383 357.224C1.02317 357.346 1.09199 357.461 1.17505 357.565C1.17505 357.647 1.2842 357.729 1.32514 357.838C1.42457 357.95 1.51578 358.068 1.59803 358.193L1.78905 358.384C1.90121 358.495 2.00604 358.614 2.10287 358.739C2.21202 358.739 2.29389 358.93 2.40305 358.998L2.635 359.23C2.86054 359.426 3.10775 359.595 3.3718 359.735C3.52189 359.858 3.68562 359.926 3.83571 360.049L4.1086 360.212C4.27233 360.212 4.38148 360.335 4.53157 360.376L4.73624 360.485L5.24108 360.676C5.2903 360.664 5.34195 360.664 5.39117 360.676C5.6028 360.755 5.82244 360.81 6.0461 360.84H6.1689C6.35648 360.887 6.54858 360.915 6.74197 360.922C6.82383 360.922 6.86477 360.922 6.89206 360.922C6.91934 360.922 7.35597 360.922 7.62885 360.922L435.395 359.557C436.767 359.545 438.111 359.165 439.287 358.457C440.463 357.749 441.427 356.739 442.08 355.532C442.725 354.345 443.041 353.007 442.996 351.656C442.95 350.306 442.545 348.992 441.821 347.851Z" fill="#3E2235"/>
<path d="M288.158 121.981C286.396 121.993 284.685 121.395 283.314 120.289C268.305 108.105 246.269 101.187 223.019 101.187C199.769 101.187 177.843 108.159 162.725 120.289C161.145 121.566 159.123 122.164 157.103 121.95C155.082 121.737 153.23 120.729 151.952 119.15C150.675 117.57 150.077 115.548 150.291 113.528C150.505 111.507 151.512 109.655 153.092 108.377C170.829 94.0235 196.372 85.7823 223.019 85.7823C249.667 85.7823 275.196 93.969 292.947 108.377C294.199 109.363 295.112 110.716 295.557 112.246C296.003 113.777 295.958 115.408 295.43 116.912C294.902 118.416 293.918 119.717 292.613 120.633C291.309 121.549 289.751 122.035 288.158 122.022V121.981Z" fill="#3E2235"/>
<path d="M259.655 66.4482C258.323 66.4528 257.014 66.1044 255.861 65.4385C247.743 60.7585 235.791 58.0569 223.019 58.0569C210.248 58.0569 198.35 60.7858 190.273 65.4385C189.398 65.9825 188.422 66.3449 187.404 66.5042C186.386 66.6634 185.347 66.6162 184.347 66.3655C183.348 66.1147 182.409 65.6655 181.587 65.0445C180.765 64.4236 180.076 63.6435 179.562 62.7509C179.047 61.8582 178.717 60.8712 178.592 59.8485C178.467 58.8258 178.549 57.7884 178.833 56.7979C179.116 55.8075 179.597 54.8843 180.245 54.0832C180.893 53.2822 181.695 52.6197 182.605 52.1352C193.124 46.0635 207.519 42.7342 223.06 42.7342C238.601 42.7342 252.996 46.0635 263.557 52.1352C265.303 53.1676 266.57 54.8489 267.082 56.8121C267.593 58.7753 267.307 60.8611 266.286 62.6141C265.622 63.786 264.658 64.7592 263.492 65.4333C262.326 66.1074 261.001 66.4578 259.655 66.4482Z" fill="#3E2235"/>
<path d="M238.997 18.1333C237.929 18.1438 236.872 17.9202 235.9 17.4784C227.547 14.6402 218.491 14.6402 210.139 17.4784C208.294 18.2316 206.228 18.2357 204.38 17.4896C202.532 16.7436 201.048 15.3064 200.243 13.4834C199.439 11.6604 199.376 9.59543 200.07 7.72729C200.764 5.85915 202.159 4.33517 203.958 3.47925C216.247 -1.15975 229.805 -1.15975 242.094 3.47925C243.713 4.17897 245.039 5.41693 245.849 6.9832C246.659 8.54947 246.902 10.3477 246.538 12.0728C246.173 13.798 245.223 15.3439 243.849 16.4485C242.474 17.5531 240.76 18.1484 238.997 18.1333Z" fill="#3E2235"/>
</svg>
